<svg width="82" height="82" fill="none" xmlns="http://www.w3.org/2000/svg">
<path d="M5.857 82C2.636 82 0 79.364 0 76.143V5.857C0 2.636 2.636 0 5.857 0c3.222 0 5.857 2.636 5.857 5.857v70.286C11.714 79.364 9.08 82 5.857 82z" fill="#193154"/>
<path d="M60.109 8.786c-11.495 0-15.888-5.857-27.309-5.857-9.298 0-13.691 3.807-21.086 5.271v11.714c7.395-1.464 11.788-5.271 21.086-5.271 11.495 0 15.814 5.857 27.309 5.857 3.734 0 6.516-.512 10.177-1.684V53.96c-3.661 1.171-6.443 1.684-10.177 1.684-11.495 0-15.888-5.857-27.309-5.857-3.734 0-6.662.659-9.371 1.464v11.714c2.709-.878 5.637-1.464 9.371-1.464 11.495 0 15.814 5.857 27.309 5.857 6.809 0 10.323-1.757 21.891-5.857V2.929c-11.568 4.1-15.082 5.857-21.891 5.857z" fill="#528DD7"/>
</svg>