<svg width="499" height="599" version="1.1" viewBox="0 0 499 599" xmlns="http://www.w3.org/2000/svg"><path d="m467 79.3c-55.7-79.6-166-103-245-52.6l-140 88.9c-9.39 5.9-18.2 12.8-26.1 20.5-7.98 7.71-15.1 16.2-21.3 25.4s-11.4 19-15.6 29.3a160 160 0 0 0-9.26 31.9c-1.65 9.15-2.55 18.4-2.67 27.7-0.13 9.31 0.52 18.6 1.93 27.8 1.41 9.2 3.58 18.3 6.48 27.1s6.53 17.4 10.8 25.7a162 162 0 0 0-8.22 14c-2.51 4.79-4.77 9.71-6.78 14.7s-3.76 10.1-5.25 15.3-2.71 10.5-3.67 15.8a170 170 0 0 0 1.55 67.5c2.5 11 6.09 21.8 10.7 32.2s10.3 20.2 16.9 29.4c55.7 79.6 166 103 245 52.6l140-88.6c9.39-5.91 18.1-12.8 26.1-20.5a161 161 0 0 0 21.3-25.4c6.21-9.18 11.4-19 15.6-29.3 4.19-10.3 7.3-20.9 9.29-31.8 1.65-9.15 2.54-18.4 2.66-27.7s-0.53-18.6-1.95-27.8c-1.41-9.19-3.58-18.2-6.49-27.1-2.91-8.83-6.54-17.4-10.9-25.6 2.97-4.51 5.72-9.18 8.23-14 2.5-4.79 4.77-9.71 6.78-14.7s3.77-10.1 5.27-15.3c1.49-5.19 2.73-10.5 3.7-15.8 1.98-11.2 2.84-22.5 2.58-33.8s-1.65-22.6-4.15-33.7c-2.5-11-6.09-21.8-10.7-32.2a171 171 0 0 0-16.9-29.4" fill="#ff3e00"/><path d="m208 528a111 111 0 0 1-33.5 3.42c-11.3-0.58-22.4-2.86-33-6.79a111 111 0 0 1-29.4-16.4 111 111 0 0 1-23.2-24.4c-3.97-5.55-7.37-11.5-10.2-17.7a102 102 0 0 1-6.45-19.3c-1.49-6.65-2.33-13.4-2.48-20.2s0.38-13.6 1.58-20.3c0.19-1.09 0.41-2.18 0.65-3.26 0.23-1.09 0.49-2.17 0.77-3.24 0.27-1.08 0.57-2.15 0.89-3.22 0.31-1.06 0.65-2.12 1-3.17l2.63-8.03 7.17 5.35c4.11 3 8.35 5.83 12.7 8.47 4.35 2.65 8.81 5.11 13.4 7.37 4.55 2.27 9.21 4.35 13.9 6.22 4.73 1.88 9.54 3.55 14.4 5.02l5.35 1.55-0.48 5.35a31.4 31.4 0 0 0 1.12 10.8c0.49 1.76 1.14 3.46 1.93 5.1s1.72 3.21 2.78 4.69a33.4 33.4 0 0 0 6.99 7.35c2.68 2.08 5.67 3.74 8.86 4.92s6.53 1.86 9.93 2.03c3.39 0.18 6.79-0.17 10.1-1.03 0.76-0.2 1.5-0.43 2.24-0.69s1.47-0.54 2.18-0.86c0.72-0.31 1.42-0.65 2.12-1.02 0.69-0.36 1.36-0.75 2.02-1.17l139-88.9a29 29 0 0 0 4.75-3.72c1.45-1.41 2.74-2.96 3.87-4.63s2.07-3.46 2.83-5.33c0.75-1.87 1.31-3.81 1.67-5.79 0.35-2.03 0.5-4.08 0.45-6.14-0.05-2.05-0.31-4.09-0.77-6.1-0.45-2-1.11-3.95-1.96-5.83-0.84-1.87-1.88-3.65-3.08-5.32-1.94-2.79-4.29-5.26-6.98-7.34s-5.68-3.74-8.86-4.92a33.5 33.5 0 0 0-9.93-2.04c-3.4-0.17-6.8 0.18-10.1 1.03-0.75 0.2-1.5 0.43-2.24 0.69s-1.46 0.54-2.18 0.85c-0.72 0.32-1.42 0.66-2.11 1.03-0.69 0.36-1.37 0.76-2.03 1.18l-53.5 34c-2.18 1.38-4.42 2.68-6.7 3.9-2.29 1.21-4.61 2.34-6.98 3.38s-4.78 1.99-7.22 2.84c-2.44 0.86-4.91 1.62-7.41 2.29-10.9 2.82-22.2 3.96-33.4 3.38s-22.3-2.87-32.9-6.78c-10.6-3.92-20.5-9.43-29.4-16.3s-16.7-15.1-23.1-24.4c-3.95-5.55-7.34-11.5-10.1-17.7-2.78-6.22-4.93-12.7-6.42-19.3-1.49-6.65-2.31-13.4-2.45-20.2-0.15-6.8 0.38-13.6 1.59-20.3a96.4 96.4 0 0 1 14.9-36.9 96.3 96.3 0 0 1 28.6-27.7l140-88.9c2.17-1.38 4.39-2.68 6.66-3.9 2.27-1.21 4.59-2.34 6.94-3.38a98.2 98.2 0 0 1 7.18-2.84c2.42-0.86 4.88-1.63 7.37-2.3 10.9-2.83 22.2-3.99 33.5-3.42 11.3 0.58 22.4 2.86 33 6.79 10.6 3.92 20.5 9.44 29.4 16.4a111 111 0 0 1 23.1 24.4c3.96 5.54 7.37 11.5 10.2 17.7s4.95 12.7 6.46 19.3c1.5 6.65 2.34 13.4 2.49 20.2 0.16 6.81-0.36 13.6-1.56 20.3-0.21 1.1-0.43 2.2-0.68 3.29-0.24 1.09-0.5 2.18-0.78 3.26-0.27 1.09-0.57 2.17-0.88 3.24-0.31 1.08-0.63 2.15-0.98 3.21l-2.67 8.03-7.12-5.35c-4.12-3.03-8.37-5.87-12.7-8.54-4.36-2.66-8.84-5.14-13.4-7.43a182 182 0 0 0-28.4-11.3l-5.36-1.55 0.49-5.35c0.15-1.83 0.14-3.67-0.03-5.49-0.16-1.82-0.49-3.63-0.97-5.4-0.49-1.76-1.12-3.49-1.91-5.14-0.78-1.66-1.71-3.24-2.77-4.74a33.2 33.2 0 0 0-6.99-7.2 33 33 0 0 0-8.82-4.8 33.2 33.2 0 0 0-19.8-0.89c-0.76 0.2-1.51 0.43-2.24 0.68-0.74 0.26-1.47 0.55-2.19 0.86-0.71 0.31-1.42 0.66-2.11 1.02-0.69 0.37-1.37 0.76-2.03 1.18l-140 88.8c-1.7 1.07-3.29 2.32-4.73 3.72s-2.74 2.95-3.87 4.61a29.7 29.7 0 0 0-2.83 5.31c-0.76 1.87-1.32 3.8-1.68 5.78-0.35 2.03-0.5 4.09-0.45 6.15a31.5 31.5 0 0 0 2.73 12 31.8 31.8 0 0 0 3.07 5.34c1.93 2.76 4.27 5.22 6.94 7.28a33.3 33.3 0 0 0 8.79 4.9 33.5 33.5 0 0 0 19.9 1.09c0.75-0.21 1.5-0.44 2.24-0.7 0.73-0.26 1.46-0.55 2.18-0.86a29.2 29.2 0 0 0 2.11-1.02c0.69-0.36 1.37-0.75 2.03-1.17l53.5-33.9c2.19-1.4 4.42-2.72 6.71-3.94 2.28-1.23 4.61-2.36 6.99-3.41a99.4 99.4 0 0 1 7.23-2.84c2.45-0.86 4.93-1.62 7.44-2.28 10.9-2.84 22.2-4 33.5-3.44 11.3 0.57 22.4 2.85 33 6.77 10.6 3.92 20.5 9.43 29.4 16.4 8.92 6.91 16.7 15.1 23.2 24.4 3.96 5.55 7.36 11.5 10.2 17.7a103 103 0 0 1 6.46 19.3c1.5 6.64 2.34 13.4 2.5 20.2 0.16 6.82-0.37 13.6-1.56 20.3a96.4 96.4 0 0 1-5.55 19.2 95.8 95.8 0 0 1-9.4 17.6c-3.73 5.54-8.03 10.7-12.8 15.3s-10.1 8.79-15.7 12.4l-140 88.9c-2.19 1.39-4.43 2.7-6.71 3.92-2.29 1.22-4.62 2.35-7 3.39-2.37 1.05-4.78 2-7.23 2.86-2.44 0.86-4.92 1.63-7.42 2.3" fill="#fff"/></svg>